# xmcd
#
# Track frame offsets:
#	150
#	18626
#	32658
#	50146
#
# Disc length: 805 seconds
#
# Revision: 0
# Processed by: cddbd v1.5.1PL0 Copyright (c) Steve Scherf et al.
# Submitted via: EasyCDDAExtractor 4.5.0.2
#
DISCID=30032304
DTITLE=Kayna Samet - Le parcours d'une goutte d'eau
DYEAR=1900
DGENRE=
TTITLE0=Le Parcours est long
TTITLE1=Ici bas
TTITLE2=Sortez moi de cette impasse
TTITLE3=Quand je participe
EXTD=
EXTT0=
EXTT1=
EXTT2=
EXTT3=
PLAYORDER=
